<svg height="27" viewBox="0 0 81 27" width="81" xmlns="http://www.w3.org/2000/svg"><g fill="none"><path d="m74.3409697-.00008775h-67.9050607c-.2475225 0-.492075 0-.73894275.00143775-.20665125.00135-.4116555.00527175-.62029125.0085725-.45325327.00533372-.90544063.04520898-1.3526325.11927925-.44656375.07568277-.87913855.21836638-1.283094.423225-.4034614.20659166-.77211561.47503633-1.09258875.7955955-.32215556.31965772-.5906971.68913881-.7952985 1.09423575-.20516609.40429066-.34742891.83752535-.421875 1.284741-.07515386.44665081-.11559484.89845237-.12096 1.35135-.006264.206955-.0069255.4145985-.01022625.6215805v15.6021255c.00330075.2095875.00396225.4126275.01022625.6222825.0053668.4528752.04580778.9046542.12096 1.3512825.07424052.4474771.21651176.8809605.421875 1.2854025.2045085.403787.4730878.7717722.7952985 1.0896525.31925801.3219845.68815051.5906118 1.09258875.7956225.40395238.2054069.83648055.3489398 1.283094.42579.44726789.0734769.89940875.1133684 1.3526325.11934.20863575.00459.41364.0072225.62029125.0072225.246861.00135.49143375.00135.73894275.00135h67.9050607c.242595 0 .489105 0 .7317-.00135.2056725 0 .41661-.0026325.6222825-.0072225.4523669-.005654.9036566-.045548 1.35-.11934.4480543-.0773912.8821331-.2208861 1.288035-.42579.4040735-.2051294.7726255-.4737494 1.09161-.7956225.3213794-.3191253.5905322-.6868414.79758-1.0896525.2038223-.4047362.3447392-.838185.4178925-1.2854025.0752726-.4466896.1171485-.8983681.12528-1.3512825.0026325-.209655.0026325-.412695.0026325-.6222825.005265-.2452275.005265-.489105.005265-.738315v-14.12685225c0-.24719175 0-.49240575-.005265-.73695825 0-.206982 0-.4146255-.0026325-.6216075-.0081298-.45293685-.0500058-.90463792-.12528-1.35135-.0733572-.44695692-.2142659-.88015729-.4178925-1.284741-.4166611-.81197365-1.0773652-1.47291386-1.88919-1.889865-.4059031-.20435802-.8400284-.34700372-1.288035-.423225-.4462662-.07439662-.8976029-.11428576-1.35-.119313-.2056725-.003294-.41661-.0072495-.6222825-.00856575-.242595-.00135-.489105-.00135-.7317-.00135z" fill="#000"/><path d="m5.70026025 26.409375c-.205659 0-.40635-.0026325-.61039575-.0072225-.4226973-.0055075-.84440666-.0423056-1.2616695-.1100925-.38907655-.0670085-.76598714-.1916565-1.1182995-.3698325-.34908185-.1766997-.66747256-.4083933-.942975-.686205-.27949028-.2745392-.5121787-.5929578-.68884425-.9426375-.17861225-.3519523-.30222255-.7292028-.366525-1.11861-.06944106-.4184225-.10701155-.8415136-.1123875-1.265625-.0042795-.1423575-.009882-.6163425-.009882-.6163425v-15.592878s.005967-.46670175.00991575-.6038145c.00514743-.42343962.04249945-.84587416.11173275-1.26364725.06442114-.39047395.18812714-.76881226.3668355-1.1219175.17601626-.34943815.40741284-.66809455.6852195-.94361625.27749441-.27813954.59690359-.51102622.9465795-.69016725.35150265-.17760357.72770093-.30137228 1.115991-.3671595.4186332-.06846786.84180657-.10548489 1.26596925-.1107405l.609066-.00824175h69.3687712l.6163425.0085725c.4203045.00499446.8396338.04168125 1.25442.10974825.3922209.06661242.7723398.19124474 1.1278576.36979875.7005274.36102108 1.2705332.93219049 1.6301249 1.63345275.175856.35066761.2976539.72591981.3612601 1.113021.0700576.42120093.1092669.84695513.1173149 1.27386675.0019575.19116.0019575.396495.0019575.6008445.0053325.253125.0053325.49405275.0053325.73695825v14.12685225c0 .2452275 0 .484515-.0053325.72576 0 .21951 0 .4205925-.0026325.6275475-.0078738.4192936-.0464293.8374484-.1153575 1.2511125-.0629844.3922163-.1859217.7724114-.3645 1.12725-.1779144.3458843-.4092665.6615447-.68553.9353475-.2757502.2793046-.5947028.5123538-.944595.6901875-.3545329.1795457-.7340922.3046547-1.1259.371115-.4172312.0681487-.8389811.1049491-1.26171.1100925-.1977075.00459-.40473.0072225-.605745.0072225l-.7317.00135z" fill="#fff"/><g fill="#000"><g transform="translate(6.327 5.23)"><path d="m10.5454428 8.19563835c.0153429-1.1908036.63963-2.29074352 1.6541415-2.91445425-.642917-.91819845-1.6811553-1.47948489-2.80151325-1.514538-1.178712-.1237275-2.32141275.705321-2.922075.705321-.61227225 0-1.53706275-.693036-2.53291725-.67254975-1.31027684.04233266-2.50219802.76924168-3.13967475 1.9147725-1.35749925 2.35035-.344925 5.80458825.95546925 7.70445005.650619.9303052 1.41099975 1.9694745 2.4059565 1.9326262.97362-.0403852 1.33724925-.6208447 2.512485-.6208447 1.1643345 0 1.50548625.6208447 2.52063225.5974155 1.04474475-.016956 1.70297105-.9344363 2.33077505-1.8735503.4674691-.6628747.8271856-1.3954958 1.065825-2.1707257-1.2408369-.5248129-2.0476602-1.74066509-2.0491043-3.08792255zm-1.917405-5.6784645c.56963991-.68382548.85028113-1.56277005.782325-2.45017575-.87027512.09140508-1.67416572.50733962-2.25149625 1.1649285-.57008813.64880062-.85889319 1.49760592-.8028045 2.3594625.88194036.00907832 1.71932362-.38684574 2.27197575-1.07421525z"/><path d="m5.35136505 6.33959085h-3.195045l-.767286 2.26560375h-1.353294l3.026295-8.38215h1.406025l3.026295 8.38215h-1.3763655zm-2.864133-1.04546025h2.5326l-1.2484935-3.67690725h-.034965zm11.54289155.25576425c0 1.899099-1.0164555 3.11923575-2.550366 3.11923575-.792865.04147512-1.53970043-.37380778-1.9228253-1.0692h-.029025v3.0269565h-1.25442v-8.1329535h1.21421025v1.0164555h.0230715c.40014561-.69103265 1.14778635-1.10613678 1.94589675-1.08039825 1.551069.00000675 2.5734578 1.22607675 2.5734578 3.119904zm-1.289358 0c0-1.237275-.6394073-2.05071075-1.6149915-2.05071075-.958446 0-1.60312505.83056725-1.60312505 2.05071075 0 1.2313485.64467905 2.0559825 1.60312505 2.0559825.975591 0 1.6149915-.80749575 1.6149915-2.0559825zm8.0159557 0c0 1.899099-1.0167862 3.11923575-2.5506967 3.11923575-.792865.04147512-1.5397004-.37380778-1.9228253-1.0692h-.029025v3.0269565h-1.25442v-8.1329535h1.2142103v1.0164555h.0230715c.4001456-.69103265 1.1477863-1.10613678 1.9458967-1.08039825 1.5510758.00000675 2.5737885 1.22607675 2.5737885 3.119904zm-1.289682 0c0-1.237275-.6394072-2.05071075-1.6149915-2.05071075-.958446 0-1.603125.83056725-1.603125 2.05071075 0 1.2313485.644679 2.0559825 1.603125 2.0559825.9755843 0 1.6149915-.80749575 1.6149915-2.0559825zm5.73453.71982c.0929475.83122875.90045 1.377 2.0039063 1.377 1.0573267 0 1.818018-.54579825 1.818018-1.29529125 0-.65061225-.4587908-1.040175-1.5451155-1.307151l-1.0863248-.2616975c-1.5391822-.3717765-2.2537372-1.09160325-2.2537372-2.2596705 0-1.4462415 1.2603532-2.4396255 3.0493665-2.4396255 1.771875 0 2.9860852.993384 3.0269565 2.4396255h-1.2663c-.0758025-.8365005-.767286-1.3414275-1.7778083-1.3414275-1.0105222 0-1.701999.510867-1.701999 1.25442 0 .59260275.4416525.94130775 1.522044 1.20825l.923508.2267595c1.7197988.4067145 2.4336923 1.09755 2.4336923 2.3236065 0 1.568187-1.2484868 2.550366-3.235275 2.550366-1.8588893 0-3.113964-.9591075-3.195045-2.475225zm7.854786-5.22202275v1.4462415h1.162134v.993384h-1.162134v3.36906675c0 .52338825.2326928.767286.743553.767286.1379642-.00240573.2757052-.01209422.4126478-.029025v.98745075c-.2296834.0429162-.4631372.06235278-.6967553.0580095-1.237275 0-1.7197987-.464724-1.7197987-1.6499295v-3.5028585h-.88857v-.993384h.8885565v-1.4462415zm1.8345083 4.50220275c0-1.92282525 1.1324677-3.13110225 2.8984162-3.13110225 1.771875 0 2.899071 1.20825 2.899071 3.13110225 0 1.92810375-1.1212627 3.13110225-2.899071 3.13110225-1.7771602 0-2.8984162-1.20300525-2.8984162-3.13110225zm4.5193342 0c0-1.3190175-.6044692-2.0975085-1.6209247-2.0975085s-1.6209248.78442425-1.6209248 2.0975085c0 1.32428925.6044693 2.09685375 1.6209248 2.09685375s1.6209247-.7725645 1.6209247-2.09685375zm2.312388-3.05596125h1.1964173v1.040175h.029025c.1668438-.66960782.7803894-1.1304552 1.4699677-1.1041245.1445607-.00050474.2887226.01519476.429786.0468045v1.173339c-.1824991-.05576626-.372877-.08137038-.563625-.0758025-.3687875-.01496108-.7256919.13201295-.9770008.40233103-.2513088.27031809-.3719148.63697372-.3301502 1.00369397v3.624831h-1.25442zm8.9088188 4.31630775c-.16875 1.10939625-1.2491483 1.870749-2.631447 1.870749-1.7778083 0-2.8812713-1.19113875-2.8812713-3.1020975 0-1.916892 1.1093963-3.160107 2.8285403-3.160107 1.690794 0 2.754054 1.1614725 2.754054 3.0144285v.429786h-4.3163078v.0758025c-.0402992.45497135.1168031.90532988.4313452 1.23651895.3145421.33118908.7562076.51128777 1.2126511.4944848.6087435.05703724 1.1826695-.29251957 1.4113035-.859572zm-4.2405104-1.8239445h3.0553049c.0227646-.40882894-.1260519-.80861417-.4105958-1.10304345-.2845438-.29442929-.6790157-.45680702-1.0883767-.44801205-.4125993-.00246224-.8090883.15999163-1.1013398.45125319-.2922515.29126157-.4560498.68719703-.4549926 1.09980231z" transform="translate(16.875 6.75)"/></g><g transform="translate(24 5)"><path d="m1.65509861.27337302c.53256922-.04268653 1.054209.18362703 1.42134148.61664938.36713248.43302236.54105988 1.02711058.47390984 1.61874585 0 1.43725199-.69547181 2.2634127-1.89525132 2.2634127h-1.45489002v-4.49880793zm-.82929818 3.86257936h.75941821c.38060146.02541024.75119388-.14207853 1.00887764-.45596095.25768375-.31388243.37502507-.74074167.31944267-1.16205492.05153852-.41956484-.06749264-.84290166-.32453748-1.15422438s-.62520397-.47805183-1.00378283-.45458554h-.75941821zm3.43122695-1.06283889c-.05212165-.60853905.20912937-1.19747354.67418511-1.51980595.46505573-.32233241 1.0535094-.32233241 1.51856514 0 .46505573.32233241.72630675.9112669.6741851 1.51980595.05311333.60919298-.20789923 1.19926973-.67336732 1.52229606-.46546808.32302633-1.05473263.32302633-1.52020071 0s-.72648065-.91310308-.67336732-1.52229606zm2.24990975 0c0-.73592579-.29599759-1.16629087-.81545314-1.16629087-.52144017 0-.81477135.43036508-.81477135 1.16629841 0 .74182183.29335143 1.16886945.81477135 1.16886945.51946905 0 .81545314-.43000318.81545314-1.16887699z"/><path d="m10.935 4.772h-.622l-.629-2.5h-.047l-.626 2.5h-.616l-.838-3.395h.609l.544 2.591h.045l.625-2.591h.575l.625 2.591h.048l.542-2.591h.599z"/><path d="m12.4741686 1.37704683h.5774751v.53933611h.0448293c.1558899-.39709402.5201595-.64000032.9070829-.60487104.2995933-.02515858.5931737.10321065.7978486.34886268.204675.24565203.2982335.58192905.2542595.91388336v2.19781746h-.5998864v-2.02956191c0-.54559405-.2122658-.8169246-.6559213-.8169246-.2032097-.0105713-.4004192.07850511-.5399264.24387614-.1395072.16537104-.2073985.39054367-.1858749.61648457v1.9861635h-.5998864z"/><path d="m16.012.052h.599v4.72h-.599z"/><path d="m17.4453269 3.07311349c-.0520816-.60857886.2092106-1.19752826.6743009-1.51986564.4650902-.32233738 1.0535741-.32233738 1.5186644 0 .4650902.32233738.7263824.91128678.6743008 1.51986564.0530459.60921479-.2080145 1.19927487-.6735057 1.52228697s-1.0547635.3230121-1.5202547 0-.7265516-.91307218-.6735057-1.52228697zm2.2499098 0c0-.73592579-.2959976-1.16629087-.8154532-1.16629087-.5214402 0-.8147713.43036508-.8147713 1.16629841 0 .74182183.2933514 1.16886945.8147713 1.16886945.5194623 0 .8154532-.43000318.8154532-1.16887699zm1.2488885.73887381c0-.61112897.4073992-.96344325 1.1305543-1.01351428l.8233646-.05301151v-.29304484c0-.35857977-.2122658-.56105794-.6222976-.56105794-.3348798 0-.5669243.13732024-.6335101.37735357h-.5807693c.061307-.5831492.5524245-.95718532 1.2419627-.95718532.7620576 0 1.191868.42373016 1.191868 1.14088969v2.31970396h-.5774751v-.47711865h-.0474619c-.1961334.34842859-.5449223.55206554-.9130165.53305556-.2580428.02997915-.5153978-.06336299-.7084421-.25695054-.1930443-.19358754-.3037603-.46935212-.304777-.7591197zm1.9539189-.29010436v-.28383889l-.742279.05301151c-.4186048.03128968-.6084593.19033174-.6084593.48963452 0 .30556071.2373165.48337659.563657.48337659.1931866.02184235.3860385-.04481961.5344079-.18472555.1483694-.13990595.2395517-.34107604.2526734-.55745818zm1.3856716-.44876945c0-1.07278373.4937568-1.75238809 1.2617413-1.75238809.3877938-.01995744.7509988.21213113.9321335.59563492h.0448293v-1.86465397h.5998864v4.72039921h-.5748357v-.53639564h-.047462c-.1948267.38032193-.5625064.60848742-.9545448.59234762-.7732632.0000377-1.261748-.67958175-1.261748-1.75494405zm.6196852 0c0 .7201.3039023 1.1534131.812159 1.1534131.5056038 0 .8180858-.43956349.8180858-1.15046508 0-.70758413-.3157627-1.1534131-.8180858-1.1534131-.5049827 0-.8121792.43625357-.8121792 1.15046508zm4.7008595 0c-.0521217-.60853905.2091293-1.19747354.6741851-1.51980595.4650557-.32233241 1.0535094-.32233241 1.5185651 0s.7263068.9112669.6741851 1.51980595c.0531133.60919298-.2078992 1.19926973-.6733673 1.52229606s-1.0547326.32302633-1.5202007 0-.7264807-.91310308-.6733673-1.52229606zm2.249903 0c0-.73592579-.2959909-1.16629087-.8154464-1.16629087-.5214402 0-.8147714.43036508-.8147714 1.16629841 0 .74182183.2933515 1.16886945.8147714 1.16886945.5194623 0 .8154464-.43000318.8154464-1.16887699zm1.4219346-1.69606666h.5774751v.53933611h.0448293c.1558899-.39709402.5201595-.64000032.9070829-.60487104.2995933-.02515858.5931737.10321065.7978486.34886268.204675.24565203.2982335.58192905.2542595.91388336v2.19781746h-.5998864v-2.02956191c0-.54559405-.2122658-.8169246-.6559213-.8169246-.2032096-.0105713-.4004192.07850511-.5399264.24387614-.1395072.16537104-.2073985.39054367-.1858749.61648457v1.9861635h-.5998864zm5.971194-.84526627v.86073015h.6585607v.5643754h-.6585607v1.74576072c0 .35563174.1311869.51135634.4298104.51135634.0764519-.00027328.152827-.00543636.2287503-.01546388v.55810992c-.1077297.02152633-.2168793.0329786-.3263136.03423769-.6671269 0-.9327951-.2621246-.9327951-.91668968v-1.91734127h-.4825444v-.56437539h.4825444v-.8607zm1.4779628-.48007421h.5946143v1.87093452h.047462c.163378-.40056934.5340229-.64378518.9268277-.60818095.2978921-.01810483.5874983.1130905.7899362.35785132s.2966224.5775938.2568998.90784273v2.19195913h-.6004871v-2.02666667c0-.54228413-.2261379-.8169246-.6499877-.8169246-.2087024-.01911787-.414319.06562612-.5618802.23157645s-.2220204.39618529-.2034716.6291537v1.98286112h-.5998864zm6.1135798 3.80371706c-.1682148.64040517-.7230681 1.05417809-1.3171147.98221707-.4053174.01195054-.79485-.1756967-1.0652455-.51315445-.2703956-.33745774-.3943182-.79061052-.3388884-1.23922611-.0539576-.44986234.0695008-.90374123.3383906-1.24404991.2688898-.34030869.6567524-.53356087 1.0631039-.52969057.8457759 0 1.3560104.64539683 1.3560104 1.71150794v.23379802h-2.1464129v.03754762c-.0189942.25193106.0580403.5011233.2121584.68629259.154118.18516928.3710194.28913417.5973612.28632645.2934877.03935314.5791779-.12324889.7231619-.41159127zm-2.1101701-1.09413611h1.5353141c.0152916-.23041237-.0572443-.45732316-.1997324-.62481417-.1424881-.16749102-.3416771-.2599855-.5484801-.2546898-.2096049-.00294129-.4113901.08878824-.5595823.25438051-.1481923.16559227-.2302308.3910116-.2275058.62512346z"/></g></g></g></svg>